# xmcd
#
# Track frame offsets:
#	150
#	14075
#	32067
#	51363
#	73064
#	92853
#	107335
#	130495
#	151779
#	165738
#	180485
#	219447
#	242522
#	258771
#	281380
#	300861
#	331777
#	353849
#
# Disc length: 4768 seconds
#
# Revision: 1
# Processed by: cddbd v1.5.2PL0 Copyright (c) Steve Scherf et al.
# Submitted via: EasyCDDAExtractor 8.2.3.1
#
DISCID=ef129e12
DTITLE=Various Artist - On the Road Again   4-th Mile 
DYEAR=2004
DGENRE=Blues
TTITLE0=What You Say and What You Do - BIG ED SULLIVAN
TTITLE1=99 Pounds - The NIGHTHAWKS
TTITLE2=Feeling Good - PETER GREEN
TTITLE3=Walk This Way - PINETOP PERKINS and RUSTY ZINN
TTITLE4=The Power of a Woman - JOEL JOHNSON
TTITLE5=Bad Axe - SON SILS
TTITLE6=Sensitive Kind J.J.CALE
TTITLE7=Thank You #19 - HUEY LEWIS
TTITLE8=One Of These Days - JAMES SOLBERG
TTITLE9=Don't Stay Out All Night - BILLY BOY ARNOLD
TTITLE10=Don't Answer the Door - PAUL LAMB and The KING SNAKES
TTITLE11=Alien - ATLANTA RHYTHM SECTION
TTITLE12=The Blues Don't Brother Me - MATT "GUITAR" MURPHY
TTITLE13=Love Is Everything - GREGG ROLIE
TTITLE14=Feel Like Going Home - ARTHUR NEILSON
TTITLE15=Painkiller Blues - DON McMINN
TTITLE16=You Saved Me - GARTH WEBBER
TTITLE17=P.S.
EXTD=
EXTT0=
EXTT1=
EXTT2=
EXTT3=
EXTT4=
EXTT5=
EXTT6=
EXTT7=
EXTT8=
EXTT9=
EXTT10=
EXTT11=
EXTT12=
EXTT13=
EXTT14=
EXTT15=
EXTT16=
EXTT17=
PLAYORDER=
